<svg xmlns="http://www.w3.org/2000/svg" width="552" height="408" viewBox="0 0 552 408" font-family="ui-monospace, SFMono-Regular, 'SF Mono', Menlo, Consolas, 'DejaVu Sans Mono', 'Liberation Mono', monospace" font-size="15.0"><defs><linearGradient id="chrome" x1="0" y1="0" x2="0" y2="1"><stop offset="0" stop-color="#1c2128"/><stop offset="1" stop-color="#15181e"/></linearGradient></defs><rect x="0.5" y="0.5" width="551" height="407" rx="11" fill="#0f1116" stroke="#2b313b"/><path d="M0.5 11.5A11 11 0 0 1 11.5 0.5H540.5A11 11 0 0 1 551.5 11.5V40.0H0.5Z" fill="url(#chrome)"/><line x1="0.5" y1="40.0" x2="551.5" y2="40.0" stroke="#2b313b"/><circle cx="22" cy="20" r="6" fill="#ff5f57"/><circle cx="42" cy="20" r="6" fill="#febc2e"/><circle cx="62" cy="20" r="6" fill="#28c840"/><text x="276.0" y="25" fill="#6e7681" font-size="12.5" text-anchor="middle">claude-credits</text><text x="24.0" y="76.3" fill="#3fb950" xml:space="preserve" textLength="9.0" lengthAdjust="spacing">$</text><text x="33.0" y="76.3" fill="#e6edf3" xml:space="preserve" textLength="135.0" lengthAdjust="spacing"> claude-credits</text><rect x="42.0" y="121.8" width="486.0" height="1.1" fill="#e6edf3" opacity="0.55"/><text x="42.0" y="151.3" fill="#56d4dd" xml:space="preserve" textLength="144.0" lengthAdjust="spacing">  Claude Credits</text><text x="204.0" y="151.3" fill="#e6edf3" opacity="0.55" xml:space="preserve" textLength="135.0" lengthAdjust="spacing">·  weekly cycle</text><rect x="42.0" y="171.8" width="486.0" height="1.1" fill="#e6edf3" opacity="0.55"/><text x="24.0" y="226.3" fill="#e6edf3" xml:space="preserve" textLength="81.0" lengthAdjust="spacing">  Cycle  </text><rect x="105.0" y="215.5" width="198.0" height="8.7" rx="2.5" fill="#8b949e" opacity="0.17"/><rect x="105.0" y="215.5" width="108.0" height="8.7" rx="2.5" fill="#e6edf3" opacity="0.55"/><text x="321.0" y="226.3" fill="#e6edf3" font-weight="700" xml:space="preserve" textLength="36.0" lengthAdjust="spacing"> 57%</text><text x="375.0" y="226.3" fill="#e6edf3" opacity="0.55" xml:space="preserve" textLength="153.0" lengthAdjust="spacing">Fri 18 Sep  23:15</text><text x="24.0" y="251.3" fill="#e6edf3" xml:space="preserve" textLength="81.0" lengthAdjust="spacing">  Usage  </text><rect x="105.0" y="240.5" width="198.0" height="8.7" rx="2.5" fill="#8b949e" opacity="0.30"/><rect x="105.0" y="240.5" width="117.0" height="8.7" rx="2.5" fill="#3fb950" opacity="1.00"/><text x="321.0" y="251.3" fill="#e6edf3" font-weight="700" xml:space="preserve" textLength="36.0" lengthAdjust="spacing"> 62%</text><text x="375.0" y="251.3" fill="#e6edf3" opacity="0.55" xml:space="preserve" textLength="63.0" lengthAdjust="spacing">(cache)</text><text x="42.0" y="301.3" fill="#3fb950" font-weight="700" xml:space="preserve" textLength="54.0" lengthAdjust="spacing">●  +5%</text><text x="42.0" y="351.3" fill="#e6edf3" opacity="0.55" xml:space="preserve" textLength="351.0" lengthAdjust="spacing">Next reset: Mon 21 Sep  23:15  ·  3d 0h</text><rect x="42.0" y="371.8" width="486.0" height="1.1" fill="#e6edf3" opacity="0.55"/></svg>